<?xml version="1.0" encoding="iso-8859-1"?>
<!-- Generator: Adobe Illustrator 19.0.0, SVG Export Plug-In . SVG Version: 6.00 Build 0)  -->
<svg xmlns="http://www.w3.org/2000/svg" xmlns:xlink="http://www.w3.org/1999/xlink" version="1.1" id="Capa_1" x="0px" y="0px" viewBox="0 0 448.304 448.304" style="enable-background:new 0 0 448.304 448.304;" xml:space="preserve" width="512px" height="512px">
<g>
	<g>
		<path d="M284.753,293.712c-0.64-0.641-1.329-1.2-2.064-1.632c-10.368-6.528-22.192-9.824-34.017-9.824    c-16.367,0-32.72,6.24-45.199,18.72l-11.328,11.312v-152.24c0-17.601-14.4-32-32-32c-17.601,0-32,14.399-32,32v70.399    c-5.84-7.168-14.641-11.84-24.608-11.84c-6.928,0-13.311,2.273-18.544,6.032l-68.912,39.888    c-9.52,5.553-15.936,15.792-15.936,27.569v52.624c0,57.216,46.367,103.584,103.584,103.584c27.712,0,52.815-10.944,71.392-28.672    l0.016,0.143l1.776-1.775c0.032-0.032,0.065-0.065,0.08-0.08l107.744-107.76C289.296,305.616,289.296,298.256,284.753,293.712z     M164.08,408.048c-16.399,15.632-37.84,24.24-60.351,24.24c-48.288,0.016-87.584-39.28-87.584-87.568v-52.624    c0-5.632,2.991-10.736,8.016-13.664l70.145-40.784c1.92-1.376,5.088-3.04,9.216-3.04c6.399,0,10.399,3.729,12.224,5.952    l28.399,34.784V160.048c0-8.817,7.183-16,16-16c8.815,0,16,7.183,16,16V320c0,6.827,4.313,12.562,10.346,14.822    c2.544,0.953,5.414,0.33,7.335-1.592l20.943-20.942c9.056-9.057,21.088-14.032,33.888-14.032c7.216,0,14.273,1.6,20.704,4.672    L164.08,408.048z" fill="#fff"/>
	</g>
</g>
<g>
	<g>
		<rect x="152.145" y="32" width="16" height="64" fill="#fff"/>
	</g>
</g>
<g>
	<g>
		<rect x="84.256" y="60.101" transform="matrix(0.7071 -0.7071 0.7071 0.7071 -38.1038 92.2111)" width="16" height="63.999" fill="#fff"/>
	</g>
</g>
<g>
	<g>
		<rect x="32.145" y="152" width="64" height="16" fill="#fff"/>
	</g>
</g>
<g>
	<g>
		<rect x="196.024" y="84.116" transform="matrix(0.7071 -0.7071 0.7071 0.7071 1.6507 188.2172)" width="63.999" height="16" fill="#fff"/>
	</g>
</g>
<g>
	<g>
		<rect x="224.145" y="152" width="64" height="16" fill="#fff"/>
	</g>
</g>
<g>
	<g>
		<path d="M384.159,112c-35.344,0-64,28.656-64,64s28.656,64,64,64s64-28.656,64-64S419.503,112,384.159,112z M384.159,224    c-26.464,0-48-21.536-48-48s21.536-48,48-48s48,21.536,48,48S410.623,224,384.159,224z" fill="#fff"/>
	</g>
</g>
<g>
	<g>
		<path d="M320.159,0c-26.512,0-48,21.487-48,48c0,26.512,21.488,48,48,48s48-21.488,48-48C368.159,21.487,346.671,0,320.159,0z     M320.159,80c-17.649,0-32-14.353-32-32c0-17.649,14.352-32,32-32c17.649,0,32,14.351,32,32C352.159,65.647,337.808,80,320.159,80    z" fill="#fff"/>
	</g>
</g>
<g>
</g>
<g>
</g>
<g>
</g>
<g>
</g>
<g>
</g>
<g>
</g>
<g>
</g>
<g>
</g>
<g>
</g>
<g>
</g>
<g>
</g>
<g>
</g>
<g>
</g>
<g>
</g>
<g>
</g>
</svg>
