<?xml version="1.0" encoding="iso-8859-1"?>
<!-- Generator: Adobe Illustrator 19.0.0, SVG Export Plug-In . SVG Version: 6.00 Build 0)  -->
<svg xmlns="http://www.w3.org/2000/svg" xmlns:xlink="http://www.w3.org/1999/xlink" version="1.1" id="Layer_1" x="0px" y="0px" viewBox="0 0 512.004 512.004" style="enable-background:new 0 0 512.004 512.004;" xml:space="preserve" width="512px" height="512px">
<g>
	<g>
		<path d="M128.004,0.002c-70.69,0-128,57.31-128,128s57.31,128,128,128s128-57.31,128-128S198.694,0.002,128.004,0.002z     M128.004,230.402c-56.465,0-102.4-45.935-102.4-102.4s45.935-102.4,102.4-102.4s102.4,45.935,102.4,102.4    S184.469,230.402,128.004,230.402z" fill="#fff"/>
	</g>
</g>
<g>
	<g>
		<path d="M384.004,256.002c-70.69,0-128,57.31-128,128s57.31,128,128,128s128-57.31,128-128S454.694,256.002,384.004,256.002z     M384.004,486.402c-56.465,0-102.4-45.935-102.4-102.4c0-56.465,45.935-102.4,102.4-102.4c56.465,0,102.4,45.935,102.4,102.4    C486.404,440.467,440.469,486.402,384.004,486.402z" fill="#fff"/>
	</g>
</g>
<g>
	<g>
		<path d="M499.204,0.002h-166.4c-7.074,0-12.8,5.726-12.8,12.8c0,7.074,5.726,12.8,12.8,12.8h135.501L3.75,490.148    c-5.001,5-5.001,13.099,0,18.099c2.5,2.509,5.777,3.755,9.054,3.755s6.554-1.246,9.054-3.746L486.404,43.701v135.501    c0,7.074,5.726,12.8,12.8,12.8c7.074,0,12.8-5.726,12.8-12.8v-166.4C512.004,5.728,506.278,0.002,499.204,0.002z" fill="#fff"/>
	</g>
</g>
<g>
</g>
<g>
</g>
<g>
</g>
<g>
</g>
<g>
</g>
<g>
</g>
<g>
</g>
<g>
</g>
<g>
</g>
<g>
</g>
<g>
</g>
<g>
</g>
<g>
</g>
<g>
</g>
<g>
</g>
</svg>
