<?xml version="1.0" encoding="iso-8859-1"?>
<!-- Generator: Adobe Illustrator 19.0.0, SVG Export Plug-In . SVG Version: 6.00 Build 0)  -->
<svg xmlns="http://www.w3.org/2000/svg" xmlns:xlink="http://www.w3.org/1999/xlink" version="1.1" id="Capa_1" x="0px" y="0px" viewBox="0 0 512 512" style="enable-background:new 0 0 512 512;" xml:space="preserve" width="512px" height="512px">
<g>
	<g>
		<g>
			<path d="M501.333,83.733h-384c-5.891,0-10.667,4.776-10.667,10.667v21.333h-32C68.776,115.733,64,120.509,64,126.4v87.36     c-25.387,8.64-42.667,22.507-42.667,40.64v42.667c0.062,3.677,0.86,7.304,2.347,10.667C4.693,318.4,0,330.773,0,339.733V382.4     c0,20.48,22.187,35.307,53.333,43.947v30.72c0,34.987,64,53.333,128,53.333s128-18.347,128-53.333V414.4     c0-18.88-18.987-34.24-53.333-43.84v-9.493h202.667c5.891,0,10.667-4.776,10.667-10.667v-32h32     c5.891,0,10.667-4.776,10.667-10.667V94.4C512,88.509,507.224,83.733,501.333,83.733z M85.333,137.067h21.333v66.88     c-7.36,0.96-14.507,2.24-21.333,3.84V137.067z M149.333,222.4c64,0,106.667,19.307,106.667,32s-42.667,32-106.667,32     s-106.667-19.307-106.667-32S85.333,222.4,149.333,222.4z M248,219.307c-10.074-33.88,9.225-69.512,43.106-79.586     s69.512,9.225,79.586,43.106c10.074,33.88-9.225,69.512-43.106,79.586c-5.924,1.761-12.072,2.655-18.252,2.654     c-11.25-0.052-22.287-3.069-32-8.747v-1.92C277.333,239.68,265.92,227.947,248,219.307z M42.667,285.12     c24.213,14.933,65.493,22.613,106.667,22.613c41.173,0,82.453-7.68,106.667-22.613v11.947c0,12.693-42.667,32-106.667,32     s-106.667-19.307-106.667-32V285.12z M37.547,324.373c23.147,17.173,67.627,26.027,111.787,26.027     c28.931,0.467,57.748-3.747,85.333-12.48c0.091,0.601,0.091,1.212,0,1.813c0,12.693-42.667,32-106.667,32     s-106.667-19.307-106.667-32C21.333,335.893,26.453,330.027,37.547,324.373z M21.333,382.4v-11.947     C45.547,385.387,86.827,393.067,128,393.067s82.453-7.68,106.667-22.613V382.4c0,12.693-42.667,32-106.667,32     S21.333,395.093,21.333,382.4z M288,457.067c0,12.693-42.667,32-106.667,32s-106.667-19.307-106.667-32V445.12     c24.213,14.933,65.493,22.613,106.667,22.613c41.173,0,82.453-7.68,106.667-22.613V457.067z M288,414.4     c0,12.693-42.667,32-106.667,32c-26.63,0.471-53.156-3.458-78.507-11.627c8.32,0.64,16.747,0.96,25.173,0.96     c57.493,0,115.413-15.04,126.08-43.733C278.72,399.573,288,409.173,288,414.4z M448,339.733H256     c-0.028-3.669-0.79-7.296-2.24-10.667c5.181-2.861,9.923-6.454,14.08-10.667H448V339.733z M490.667,297.067H277.333v-17.173     c43.689,17.673,93.433-3.418,111.106-47.107c17.673-43.689-3.418-93.433-47.107-111.106     c-43.689-17.673-93.433,3.418-111.106,47.107c-4.148,10.254-6.263,21.218-6.227,32.279c0.037,3.174,0.25,6.343,0.64,9.493     c-24.564-6.522-49.893-9.715-75.307-9.493c-7.147,0-14.293,0-21.333,0.747v-96.747h362.667V297.067z" fill="#fff"/>
			<path d="M490.667,414.4c0,17.673-14.327,32-32,32H399.04l24.427-24.427l-15.04-15.04L365.76,449.6     c-4.136,4.16-4.136,10.88,0,15.04l42.667,42.667l15.04-15.04l-24.427-24.533h59.627c29.455,0,53.333-23.878,53.333-53.333v-32     h-21.333V414.4z" fill="#fff"/>
			<path d="M21.333,94.4c0-17.673,14.327-32,32-32H80.96L56.427,86.827l15.147,15.147l42.667-42.667c4.136-4.16,4.136-10.88,0-15.04     L71.573,1.6L56.427,16.64L80.96,41.067H53.333C23.878,41.067,0,64.945,0,94.4v64h21.333V94.4z" fill="#fff"/>
			<rect y="179.733" width="21.333" height="21.333" fill="#fff"/>
			<rect x="490.667" y="339.733" width="21.333" height="21.333" fill="#fff"/>
			<path d="M160,137.067h21.333v-21.333h-32c-5.891,0-10.667,4.776-10.667,10.667v32H160V137.067z" fill="#fff"/>
			<path d="M458.667,158.4H480v-32c0-5.891-4.776-10.667-10.667-10.667h-32v21.333h21.333V158.4z" fill="#fff"/>
			<path d="M480,275.733v-32h-21.333v21.333h-21.333V286.4h32C475.224,286.4,480,281.624,480,275.733z" fill="#fff"/>
		</g>
	</g>
</g>
<g>
</g>
<g>
</g>
<g>
</g>
<g>
</g>
<g>
</g>
<g>
</g>
<g>
</g>
<g>
</g>
<g>
</g>
<g>
</g>
<g>
</g>
<g>
</g>
<g>
</g>
<g>
</g>
<g>
</g>
</svg>
