<?xml version="1.0" encoding="iso-8859-1"?>
<!-- Generator: Adobe Illustrator 19.0.0, SVG Export Plug-In . SVG Version: 6.00 Build 0)  -->
<svg xmlns="http://www.w3.org/2000/svg" xmlns:xlink="http://www.w3.org/1999/xlink" version="1.1" id="Capa_1" x="0px" y="0px" viewBox="0 0 490.667 490.667" style="enable-background:new 0 0 490.667 490.667;" xml:space="preserve" width="512px" height="512px">
<g>
	<g>
		<g>
			<path d="M341.333,151.488v-43.499c11.755,2.859,20.651,10.197,21.376,18.859c0.469,5.888,5.995,10.176,11.52,9.728     c5.867-0.491,10.219-5.675,9.728-11.541c-1.664-19.733-19.285-35.221-42.624-38.869V74.667c0-5.888-4.779-10.667-10.667-10.667     C324.779,64,320,68.779,320,74.667v11.541c-24.32,3.968-42.667,21.205-42.667,41.792c0,19.989,13.973,33.451,42.667,40.512     v43.499c-11.755-2.859-20.651-10.219-21.376-18.859c-0.469-5.888-6.165-10.368-11.52-9.728     c-5.867,0.491-10.219,5.653-9.728,11.52c1.664,19.755,19.285,35.243,42.624,38.891v11.499c0,5.888,4.779,10.667,10.667,10.667     c5.888,0,10.667-4.779,10.667-10.667v-11.541C365.653,229.824,384,212.587,384,192C384,172.032,370.027,158.549,341.333,151.488z      M320,146.496c-14.208-4.117-21.333-10.027-21.333-18.496c0-9.067,9.067-16.96,21.333-19.968V146.496z M341.333,211.968v-38.464     c14.208,4.096,21.333,10.005,21.333,18.496C362.667,201.067,353.6,208.96,341.333,211.968z" fill="#fff"/>
			<path d="M252.16,173.12l-128-106.667c-3.179-2.624-7.595-3.2-11.349-1.451c-3.755,1.749-6.144,5.525-6.144,9.664v170.667     c0,3.691,1.92,7.125,5.077,9.067c3.115,1.941,7.061,2.112,10.368,0.469l33.131-16.555l16.555,33.131     c1.877,3.733,5.632,5.888,9.536,5.888c1.6,0,3.221-0.363,4.757-1.131l42.667-21.333c5.269-2.645,7.403-9.045,4.779-14.315     l-16.555-33.131l33.131-16.555c3.221-1.621,5.419-4.736,5.824-8.32C256.341,178.965,254.933,175.424,252.16,173.12z      M197.888,193.109c-5.269,2.645-7.403,9.045-4.779,14.315l16.555,33.131l-23.573,11.797l-16.555-33.131     c-1.877-3.733-5.632-5.888-9.536-5.888c-1.6,0-3.221,0.363-4.779,1.131L128,228.075V97.429l97.963,81.643L197.888,193.109z" fill="#fff"/>
			<path d="M437.333,0h-384C23.915,0,0,23.936,0,53.333V352c0,29.397,23.915,53.333,53.333,53.333h160v21.333h-74.667     c-29.419,0-53.333,23.936-53.333,53.333c0,5.888,4.779,10.667,10.667,10.667h298.667c5.888,0,10.667-4.779,10.667-10.667     c0-29.397-23.915-53.333-53.333-53.333h-74.667v-21.333h160c29.419,0,53.333-23.936,53.333-53.333V53.333     C490.667,23.936,466.752,0,437.333,0z M352,448c13.909,0,25.771,8.917,30.165,21.333H108.501     C112.896,456.917,124.757,448,138.667,448H352z M234.667,426.667v-21.333H256v21.333H234.667z M469.333,352     c0,17.643-14.357,32-32,32h-384c-17.643,0-32-14.357-32-32v-10.667h448V352z M469.333,320h-448V53.333c0-17.643,14.357-32,32-32     h384c17.643,0,32,14.357,32,32V320z" fill="#fff"/>
		</g>
	</g>
</g>
<g>
</g>
<g>
</g>
<g>
</g>
<g>
</g>
<g>
</g>
<g>
</g>
<g>
</g>
<g>
</g>
<g>
</g>
<g>
</g>
<g>
</g>
<g>
</g>
<g>
</g>
<g>
</g>
<g>
</g>
</svg>
